<svg xmlns="http://www.w3.org/2000/svg" viewBox="0 0 416 336" width="416" height="336">
    <svg x="88" y="0" width="240" height="240" viewBox="0 0 1024 1024"><g fill="#0A0A0A">
  <path d="M120 242 L280 242 L280 322 L200 322 L200 702 L280 702 L280 782 L120 782 Z"></path>
  <path d="M904 242 L744 242 L744 322 L824 322 L824 702 L744 702 L744 782 L904 782 Z"></path>
  <rect x="362" y="242" width="120" height="405" rx="14" ry="14"></rect>
  <rect x="542" y="242" width="120" height="540" rx="14" ry="14"></rect>
</g></svg>
    <circle cx="12" cy="276" r="8" fill="#0A0A0A"></circle><circle cx="36" cy="276" r="8" fill="#0A0A0A"></circle><circle cx="12" cy="300" r="8" fill="#0A0A0A"></circle><circle cx="146" cy="276" r="8" fill="#0A0A0A"></circle><circle cx="122" cy="300" r="8" fill="#0A0A0A"></circle><circle cx="98" cy="324" r="8" fill="#0A0A0A"></circle><circle cx="208" cy="276" r="8" fill="#0A0A0A"></circle><circle cx="184" cy="300" r="8" fill="#0A0A0A"></circle><circle cx="208" cy="300" r="10" fill="#B91C1C"></circle><circle cx="232" cy="300" r="8" fill="#0A0A0A"></circle><circle cx="208" cy="324" r="8" fill="#0A0A0A"></circle><circle cx="270" cy="276" r="8" fill="#0A0A0A"></circle><circle cx="294" cy="300" r="8" fill="#0A0A0A"></circle><circle cx="318" cy="324" r="8" fill="#0A0A0A"></circle><circle cx="404" cy="300" r="8" fill="#0A0A0A"></circle><circle cx="380" cy="324" r="8" fill="#0A0A0A"></circle><circle cx="404" cy="324" r="8" fill="#0A0A0A"></circle>
  </svg>