<svg xmlns="http://www.w3.org/2000/svg" viewBox="0 0 614 200" width="614" height="200">
    <svg x="0" y="0" width="200" height="200" viewBox="0 0 1024 1024"><g fill="#FFFFFF">
  <path d="M120 242 L280 242 L280 322 L200 322 L200 702 L280 702 L280 782 L120 782 Z"></path>
  <path d="M904 242 L744 242 L744 322 L824 322 L824 702 L744 702 L744 782 L904 782 Z"></path>
  <rect x="362" y="242" width="120" height="405" rx="14" ry="14"></rect>
  <rect x="542" y="242" width="120" height="540" rx="14" ry="14"></rect>
</g></svg>
    <circle cx="243" cy="78" r="7" fill="#FFFFFF"></circle><circle cx="265" cy="78" r="7" fill="#FFFFFF"></circle><circle cx="243" cy="100" r="7" fill="#FFFFFF"></circle><circle cx="366" cy="78" r="7" fill="#FFFFFF"></circle><circle cx="344" cy="100" r="7" fill="#FFFFFF"></circle><circle cx="322" cy="122" r="7" fill="#FFFFFF"></circle><circle cx="423" cy="78" r="7" fill="#FFFFFF"></circle><circle cx="401" cy="100" r="7" fill="#FFFFFF"></circle><circle cx="423" cy="100" r="9" fill="#D71921"></circle><circle cx="445" cy="100" r="7" fill="#FFFFFF"></circle><circle cx="423" cy="122" r="7" fill="#FFFFFF"></circle><circle cx="480" cy="78" r="7" fill="#FFFFFF"></circle><circle cx="502" cy="100" r="7" fill="#FFFFFF"></circle><circle cx="524" cy="122" r="7" fill="#FFFFFF"></circle><circle cx="603" cy="100" r="7" fill="#FFFFFF"></circle><circle cx="581" cy="122" r="7" fill="#FFFFFF"></circle><circle cx="603" cy="122" r="7" fill="#FFFFFF"></circle>
  </svg>