<svg xmlns="http://www.w3.org/2000/svg" viewBox="0 0 1280 640" width="1280" height="640"><rect width="1280" height="640" fill="#000000"></rect><line x1="40.96000000000001" y1="40.96000000000001" x2="66.56" y2="40.96000000000001" stroke="#2A2A2A" stroke-width="5"></line><line x1="40.96000000000001" y1="40.96000000000001" x2="40.96000000000001" y2="66.56" stroke="#2A2A2A" stroke-width="5"></line><line x1="1239.04" y1="40.96000000000001" x2="1213.44" y2="40.96000000000001" stroke="#2A2A2A" stroke-width="5"></line><line x1="1239.04" y1="40.96000000000001" x2="1239.04" y2="66.56" stroke="#2A2A2A" stroke-width="5"></line><line x1="40.96000000000001" y1="599.04" x2="66.56" y2="599.04" stroke="#2A2A2A" stroke-width="5"></line><line x1="40.96000000000001" y1="599.04" x2="40.96000000000001" y2="573.4399999999999" stroke="#2A2A2A" stroke-width="5"></line><line x1="1239.04" y1="599.04" x2="1213.44" y2="599.04" stroke="#2A2A2A" stroke-width="5"></line><line x1="1239.04" y1="599.04" x2="1239.04" y2="573.4399999999999" stroke="#2A2A2A" stroke-width="5"></line><svg x="307.5" y="200" width="240" height="240" viewBox="0 0 1024 1024"><g fill="#FFFFFF">
  <rect x="132" y="132" width="120" height="120" rx="20" ry="20"></rect>
  <rect x="292" y="292" width="120" height="120" rx="20" ry="20"></rect>
  <rect x="132" y="452" width="120" height="120" rx="20" ry="20"></rect>
  <rect x="292" y="452" width="120" height="120" rx="20" ry="20"></rect>
  <rect x="612" y="452" width="120" height="120" rx="20" ry="20"></rect>
  <rect x="612" y="612" width="120" height="120" rx="20" ry="20"></rect>
  <rect x="772" y="772" width="120" height="120" rx="20" ry="20"></rect>
</g><g fill="#D71921"><rect x="442" y="442" width="140" height="140" rx="24" ry="24"></rect></g></svg><circle cx="601.5" cy="298" r="7" fill="#FFFFFF"></circle><circle cx="623.5" cy="298" r="7" fill="#FFFFFF"></circle><circle cx="601.5" cy="320" r="7" fill="#FFFFFF"></circle><circle cx="724.5" cy="298" r="7" fill="#FFFFFF"></circle><circle cx="702.5" cy="320" r="7" fill="#FFFFFF"></circle><circle cx="680.5" cy="342" r="7" fill="#FFFFFF"></circle><circle cx="781.5" cy="298" r="7" fill="#FFFFFF"></circle><circle cx="759.5" cy="320" r="7" fill="#FFFFFF"></circle><circle cx="781.5" cy="320" r="9" fill="#D71921"></circle><circle cx="803.5" cy="320" r="7" fill="#FFFFFF"></circle><circle cx="781.5" cy="342" r="7" fill="#FFFFFF"></circle><circle cx="838.5" cy="298" r="7" fill="#FFFFFF"></circle><circle cx="860.5" cy="320" r="7" fill="#FFFFFF"></circle><circle cx="882.5" cy="342" r="7" fill="#FFFFFF"></circle><circle cx="961.5" cy="320" r="7" fill="#FFFFFF"></circle><circle cx="939.5" cy="342" r="7" fill="#FFFFFF"></circle><circle cx="961.5" cy="342" r="7" fill="#FFFFFF"></circle></svg>