<svg xmlns="http://www.w3.org/2000/svg" viewBox="0 0 1920 1080" width="1920" height="1080"><rect width="1920" height="1080" fill="#F5F3EF"></rect><line x1="69.12" y1="69.12" x2="112.32000000000001" y2="69.12" stroke="#C8C4BC" stroke-width="8"></line><line x1="69.12" y1="69.12" x2="69.12" y2="112.32000000000001" stroke="#C8C4BC" stroke-width="8"></line><line x1="1850.88" y1="69.12" x2="1807.68" y2="69.12" stroke="#C8C4BC" stroke-width="8"></line><line x1="1850.88" y1="69.12" x2="1850.88" y2="112.32000000000001" stroke="#C8C4BC" stroke-width="8"></line><line x1="69.12" y1="1010.88" x2="112.32000000000001" y2="1010.88" stroke="#C8C4BC" stroke-width="8"></line><line x1="69.12" y1="1010.88" x2="69.12" y2="967.68" stroke="#C8C4BC" stroke-width="8"></line><line x1="1850.88" y1="1010.88" x2="1807.68" y2="1010.88" stroke="#C8C4BC" stroke-width="8"></line><line x1="1850.88" y1="1010.88" x2="1850.88" y2="967.68" stroke="#C8C4BC" stroke-width="8"></line><svg x="770" y="273" width="380" height="380" viewBox="0 0 1024 1024"><g fill="#0A0A0A">
  <rect x="132" y="132" width="120" height="120" rx="20" ry="20"></rect>
  <rect x="292" y="292" width="120" height="120" rx="20" ry="20"></rect>
  <rect x="132" y="452" width="120" height="120" rx="20" ry="20"></rect>
  <rect x="292" y="452" width="120" height="120" rx="20" ry="20"></rect>
  <rect x="612" y="452" width="120" height="120" rx="20" ry="20"></rect>
  <rect x="612" y="612" width="120" height="120" rx="20" ry="20"></rect>
  <rect x="772" y="772" width="120" height="120" rx="20" ry="20"></rect>
</g><g fill="#B91C1C"><rect x="442" y="442" width="140" height="140" rx="24" ry="24"></rect></g></svg><circle cx="664" cy="717" r="12" fill="#0A0A0A"></circle><circle cx="700" cy="717" r="12" fill="#0A0A0A"></circle><circle cx="664" cy="753" r="12" fill="#0A0A0A"></circle><circle cx="866" cy="717" r="12" fill="#0A0A0A"></circle><circle cx="830" cy="753" r="12" fill="#0A0A0A"></circle><circle cx="794" cy="789" r="12" fill="#0A0A0A"></circle><circle cx="960" cy="717" r="12" fill="#0A0A0A"></circle><circle cx="924" cy="753" r="12" fill="#0A0A0A"></circle><circle cx="960" cy="753" r="14" fill="#B91C1C"></circle><circle cx="996" cy="753" r="12" fill="#0A0A0A"></circle><circle cx="960" cy="789" r="12" fill="#0A0A0A"></circle><circle cx="1054" cy="717" r="12" fill="#0A0A0A"></circle><circle cx="1090" cy="753" r="12" fill="#0A0A0A"></circle><circle cx="1126" cy="789" r="12" fill="#0A0A0A"></circle><circle cx="1256" cy="753" r="12" fill="#0A0A0A"></circle><circle cx="1220" cy="789" r="12" fill="#0A0A0A"></circle><circle cx="1256" cy="789" r="12" fill="#0A0A0A"></circle></svg>