<svg xmlns="http://www.w3.org/2000/svg" viewBox="0 0 1200 630" width="1200" height="630"><rect width="1200" height="630" fill="#000000"></rect><line x1="40.32" y1="40.32" x2="65.52" y2="40.32" stroke="#2A2A2A" stroke-width="5"></line><line x1="40.32" y1="40.32" x2="40.32" y2="65.52" stroke="#2A2A2A" stroke-width="5"></line><line x1="1159.68" y1="40.32" x2="1134.48" y2="40.32" stroke="#2A2A2A" stroke-width="5"></line><line x1="1159.68" y1="40.32" x2="1159.68" y2="65.52" stroke="#2A2A2A" stroke-width="5"></line><line x1="40.32" y1="589.68" x2="65.52" y2="589.68" stroke="#2A2A2A" stroke-width="5"></line><line x1="40.32" y1="589.68" x2="40.32" y2="564.4799999999999" stroke="#2A2A2A" stroke-width="5"></line><line x1="1159.68" y1="589.68" x2="1134.48" y2="589.68" stroke="#2A2A2A" stroke-width="5"></line><line x1="1159.68" y1="589.68" x2="1159.68" y2="564.4799999999999" stroke="#2A2A2A" stroke-width="5"></line><svg x="267.5" y="195" width="240" height="240" viewBox="0 0 1024 1024"><g fill="#FFFFFF">
  <rect x="132" y="132" width="120" height="120" rx="20" ry="20"></rect>
  <rect x="292" y="292" width="120" height="120" rx="20" ry="20"></rect>
  <rect x="132" y="452" width="120" height="120" rx="20" ry="20"></rect>
  <rect x="292" y="452" width="120" height="120" rx="20" ry="20"></rect>
  <rect x="612" y="452" width="120" height="120" rx="20" ry="20"></rect>
  <rect x="612" y="612" width="120" height="120" rx="20" ry="20"></rect>
  <rect x="772" y="772" width="120" height="120" rx="20" ry="20"></rect>
</g><g fill="#D71921"><rect x="442" y="442" width="140" height="140" rx="24" ry="24"></rect></g></svg><circle cx="561.5" cy="293" r="7" fill="#FFFFFF"></circle><circle cx="583.5" cy="293" r="7" fill="#FFFFFF"></circle><circle cx="561.5" cy="315" r="7" fill="#FFFFFF"></circle><circle cx="684.5" cy="293" r="7" fill="#FFFFFF"></circle><circle cx="662.5" cy="315" r="7" fill="#FFFFFF"></circle><circle cx="640.5" cy="337" r="7" fill="#FFFFFF"></circle><circle cx="741.5" cy="293" r="7" fill="#FFFFFF"></circle><circle cx="719.5" cy="315" r="7" fill="#FFFFFF"></circle><circle cx="741.5" cy="315" r="9" fill="#D71921"></circle><circle cx="763.5" cy="315" r="7" fill="#FFFFFF"></circle><circle cx="741.5" cy="337" r="7" fill="#FFFFFF"></circle><circle cx="798.5" cy="293" r="7" fill="#FFFFFF"></circle><circle cx="820.5" cy="315" r="7" fill="#FFFFFF"></circle><circle cx="842.5" cy="337" r="7" fill="#FFFFFF"></circle><circle cx="921.5" cy="315" r="7" fill="#FFFFFF"></circle><circle cx="899.5" cy="337" r="7" fill="#FFFFFF"></circle><circle cx="921.5" cy="337" r="7" fill="#FFFFFF"></circle></svg>