<svg xmlns="http://www.w3.org/2000/svg" viewBox="0 0 1024 1024" width="1024" height="1024"><rect width="1024" height="1024" fill="#000000"></rect><svg x="332" y="268.5" width="360" height="360" viewBox="0 0 1024 1024"><g fill="#FFFFFF">
  <rect x="132" y="132" width="120" height="120" rx="20" ry="20"></rect>
  <rect x="292" y="292" width="120" height="120" rx="20" ry="20"></rect>
  <rect x="132" y="452" width="120" height="120" rx="20" ry="20"></rect>
  <rect x="292" y="452" width="120" height="120" rx="20" ry="20"></rect>
  <rect x="612" y="452" width="120" height="120" rx="20" ry="20"></rect>
  <rect x="612" y="612" width="120" height="120" rx="20" ry="20"></rect>
  <rect x="772" y="772" width="120" height="120" rx="20" ry="20"></rect>
</g><g fill="#D71921"><rect x="442" y="442" width="140" height="140" rx="24" ry="24"></rect></g></svg><circle cx="282" cy="685.5" r="9" fill="#FFFFFF"></circle><circle cx="310" cy="685.5" r="9" fill="#FFFFFF"></circle><circle cx="282" cy="713.5" r="9" fill="#FFFFFF"></circle><circle cx="439" cy="685.5" r="9" fill="#FFFFFF"></circle><circle cx="411" cy="713.5" r="9" fill="#FFFFFF"></circle><circle cx="383" cy="741.5" r="9" fill="#FFFFFF"></circle><circle cx="512" cy="685.5" r="9" fill="#FFFFFF"></circle><circle cx="484" cy="713.5" r="9" fill="#FFFFFF"></circle><circle cx="512" cy="713.5" r="11" fill="#D71921"></circle><circle cx="540" cy="713.5" r="9" fill="#FFFFFF"></circle><circle cx="512" cy="741.5" r="9" fill="#FFFFFF"></circle><circle cx="585" cy="685.5" r="9" fill="#FFFFFF"></circle><circle cx="613" cy="713.5" r="9" fill="#FFFFFF"></circle><circle cx="641" cy="741.5" r="9" fill="#FFFFFF"></circle><circle cx="742" cy="713.5" r="9" fill="#FFFFFF"></circle><circle cx="714" cy="741.5" r="9" fill="#FFFFFF"></circle><circle cx="742" cy="741.5" r="9" fill="#FFFFFF"></circle></svg>