<svg xmlns="http://www.w3.org/2000/svg" viewBox="0 0 1500 500" width="1500" height="500"><rect width="1500" height="500" fill="#F5F3EF"></rect><line x1="32" y1="32" x2="52" y2="32" stroke="#C8C4BC" stroke-width="4"></line><line x1="32" y1="32" x2="32" y2="52" stroke="#C8C4BC" stroke-width="4"></line><line x1="1468" y1="32" x2="1448" y2="32" stroke="#C8C4BC" stroke-width="4"></line><line x1="1468" y1="32" x2="1468" y2="52" stroke="#C8C4BC" stroke-width="4"></line><line x1="32" y1="468" x2="52" y2="468" stroke="#C8C4BC" stroke-width="4"></line><line x1="32" y1="468" x2="32" y2="448" stroke="#C8C4BC" stroke-width="4"></line><line x1="1468" y1="468" x2="1448" y2="468" stroke="#C8C4BC" stroke-width="4"></line><line x1="1468" y1="468" x2="1468" y2="448" stroke="#C8C4BC" stroke-width="4"></line><svg x="446" y="140" width="220" height="220" viewBox="0 0 1024 1024"><g fill="#0A0A0A">
  <rect x="132" y="132" width="120" height="120" rx="20" ry="20"></rect>
  <rect x="292" y="292" width="120" height="120" rx="20" ry="20"></rect>
  <rect x="132" y="452" width="120" height="120" rx="20" ry="20"></rect>
  <rect x="292" y="452" width="120" height="120" rx="20" ry="20"></rect>
  <rect x="612" y="452" width="120" height="120" rx="20" ry="20"></rect>
  <rect x="612" y="612" width="120" height="120" rx="20" ry="20"></rect>
  <rect x="772" y="772" width="120" height="120" rx="20" ry="20"></rect>
</g><g fill="#B91C1C"><rect x="442" y="442" width="140" height="140" rx="24" ry="24"></rect></g></svg><circle cx="716" cy="230" r="6" fill="#0A0A0A"></circle><circle cx="736" cy="230" r="6" fill="#0A0A0A"></circle><circle cx="716" cy="250" r="6" fill="#0A0A0A"></circle><circle cx="828" cy="230" r="6" fill="#0A0A0A"></circle><circle cx="808" cy="250" r="6" fill="#0A0A0A"></circle><circle cx="788" cy="270" r="6" fill="#0A0A0A"></circle><circle cx="880" cy="230" r="6" fill="#0A0A0A"></circle><circle cx="860" cy="250" r="6" fill="#0A0A0A"></circle><circle cx="880" cy="250" r="8" fill="#B91C1C"></circle><circle cx="900" cy="250" r="6" fill="#0A0A0A"></circle><circle cx="880" cy="270" r="6" fill="#0A0A0A"></circle><circle cx="932" cy="230" r="6" fill="#0A0A0A"></circle><circle cx="952" cy="250" r="6" fill="#0A0A0A"></circle><circle cx="972" cy="270" r="6" fill="#0A0A0A"></circle><circle cx="1044" cy="250" r="6" fill="#0A0A0A"></circle><circle cx="1024" cy="270" r="6" fill="#0A0A0A"></circle><circle cx="1044" cy="270" r="6" fill="#0A0A0A"></circle></svg>